o Button
v -0.7 0 -0.4
v 0.7 0 -0.4
v 0.704370160244488 -0.000978869674096929 -0.404370160244488
v -0.704370160244488 -0.000978869674096912 -0.404370160244488
v 0.708312538755549 -0.00381966011250105 -0.408312538755549
v -0.708312538755549 -0.00381966011250102 -0.408312538755549
v 0.711441228056354 -0.00824429495415054 -0.411441228056354
v -0.711441228056354 -0.00824429495415049 -0.411441228056354
v 0.713449970239279 -0.013819660112501 -0.413449970239279
v -0.713449970239279 -0.013819660112501 -0.413449970239279
v 0.714142135623731 -0.02 -0.414142135623731
v -0.714142135623731 -0.0199999999999999 -0.414142135623731
v 0.7 0 0.4
v 0.704370160244488 -0.000978869674096912 0.404370160244488
v 0.708312538755549 -0.00381966011250102 0.408312538755549
v 0.711441228056354 -0.00824429495415049 0.411441228056354
v 0.713449970239279 -0.013819660112501 0.413449970239279
v 0.714142135623731 -0.0199999999999999 0.414142135623731
v -0.7 0 0.4
v -0.704370160244488 -0.000978869674096929 0.404370160244488
v -0.708312538755549 -0.00381966011250105 0.408312538755549
v -0.711441228056354 -0.00824429495415054 0.411441228056354
v -0.713449970239279 -0.013819660112501 0.413449970239279
v -0.714142135623731 -0.02 0.414142135623731
v -0.695629839755512 -0.000978869674096947 0.395629839755512
v -0.695629839755512 -0.000978869674096929 -0.395629839755512
v -0.691687461244451 -0.00381966011250108 0.391687461244451
v -0.691687461244451 -0.00381966011250105 -0.391687461244451
v -0.688558771943646 -0.00824429495415058 0.388558771943646
v -0.688558771943646 -0.00824429495415054 -0.388558771943646
v -0.686550029760721 -0.0138196601125011 0.386550029760721
v -0.686550029760721 -0.013819660112501 -0.386550029760721
v -0.685857864376269 -0.0200000000000001 0.385857864376269
v -0.685857864376269 -0.02 -0.385857864376269
v 0.695629839755512 -0.000978869674096929 0.395629839755512
v 0.691687461244451 -0.00381966011250105 0.391687461244451
v 0.688558771943646 -0.00824429495415054 0.388558771943646
v 0.686550029760721 -0.013819660112501 0.386550029760721
v 0.685857864376269 -0.02 0.385857864376269
v 0.695629839755512 -0.000978869674096947 -0.395629839755512
v 0.691687461244451 -0.00381966011250108 -0.391687461244451
v 0.688558771943646 -0.00824429495415058 -0.388558771943646
v 0.686550029760721 -0.0138196601125011 -0.386550029760721
v 0.685857864376269 -0.0200000000000001 -0.385857864376269
vn 0 0.975820494837867 -0.218573470152212
vn 0 0.975820494837866 -0.218573470152216
vn 1.17158515924589E-17 0.975820494837866 -0.218573470152216
vn 1.17158515924589E-17 0.975820494837867 -0.218573470152212
vn 9.74073715055878E-18 0.811311996514365 -0.584613414413214
vn 9.74073715055876E-18 0.811311996514363 -0.584613414413216
vn 1.8379553487507E-17 0.811311996514363 -0.584613414413216
vn 1.8379553487507E-17 0.811311996514364 -0.584613414413214
vn 1.30793581250952E-17 0.577350269189627 -0.816496580927725
vn 1.3079358125095E-17 0.57735026918962 -0.81649658092773
vn 4.94511978322753E-17 0.57735026918962 -0.81649658092773
vn 4.94511978322753E-17 0.577350269189627 -0.816496580927725
vn 4.7034793922193E-17 0.338960071425932 -0.94080075997999
vn 4.70347939221928E-17 0.338960071425923 -0.940800759979993
vn 8.51509772276198E-17 0.338960071425923 -0.940800759979993
vn 8.51509772276199E-17 0.338960071425931 -0.94080075997999
vn 8.12472031944923E-17 0.111298886195982 -0.993786978145484
vn 8.12472031944923E-17 0.111298886195982 -0.993786978145484
vn 8.13036343889592E-17 0.111298886195982 -0.993786978145485
vn 8.13036343889592E-17 0.111298886195982 -0.993786978145485
vn 0 0 0
vn 0.218573470152216 0.975820494837866 0
vn 0.218573470152212 0.975820494837867 0
vn 0.218573470152212 0.975820494837867 -2.0407777514027E-17
vn 0.218573470152216 0.975820494837866 -2.04077775140269E-17
vn 0.584613414413227 0.811311996514355 -1.69673365203064E-17
vn 0.584613414413214 0.811311996514364 -1.69673365203066E-17
vn 0.584613414413214 0.811311996514364 -1.11363300254823E-16
vn 0.584613414413226 0.811311996514355 -1.11363300254825E-16
vn 0.816496580927711 0.577350269189647 -1.33694004864358E-16
vn 0.81649658092772 0.577350269189634 -1.33694004864358E-16
vn 0.81649658092772 0.577350269189634 -3.04278897424813E-17
vn 0.816496580927711 0.577350269189647 -3.0427889742482E-17
vn 0.94080075997999 0.338960071425931 -1.78640943476623E-17
vn 0.94080075997999 0.338960071425932 -1.78640943476623E-17
vn 0.94080075997999 0.338960071425932 -2.06216701339344E-17
vn 0.94080075997999 0.338960071425931 -2.06216701339344E-17
vn 0.993786978145489 0.111298886195938 -6.77120732171095E-18
vn 0.993786978145488 0.111298886195956 -6.77120732171203E-18
vn 0.993786978145488 0.111298886195955 -1.40199091331422E-16
vn 0.99378697814549 0.111298886195938 -1.40199091331422E-16
vn 0 0.975820494837867 0.218573470152212
vn 0 0.975820494837866 0.218573470152216
vn -1.17158515924589E-17 0.975820494837866 0.218573470152216
vn -1.17158515924589E-17 0.975820494837867 0.218573470152212
vn -9.74073715055878E-18 0.811311996514365 0.584613414413214
vn -9.74073715055876E-18 0.811311996514363 0.584613414413216
vn -1.8379553487507E-17 0.811311996514363 0.584613414413216
vn -1.8379553487507E-17 0.811311996514364 0.584613414413214
vn -1.30793581250952E-17 0.577350269189627 0.816496580927725
vn -1.3079358125095E-17 0.57735026918962 0.81649658092773
vn -4.94511978322753E-17 0.57735026918962 0.81649658092773
vn -4.94511978322753E-17 0.577350269189627 0.816496580927725
vn -4.7034793922193E-17 0.338960071425932 0.94080075997999
vn -4.70347939221928E-17 0.338960071425923 0.940800759979993
vn -8.51509772276198E-17 0.338960071425923 0.940800759979993
vn -8.51509772276199E-17 0.338960071425931 0.94080075997999
vn -8.12472031944923E-17 0.111298886195982 0.993786978145484
vn -8.12472031944923E-17 0.111298886195982 0.993786978145484
vn -8.13036343889592E-17 0.111298886195982 0.993786978145485
vn -8.13036343889592E-17 0.111298886195982 0.993786978145485
vn -0.218573470152216 0.975820494837866 0
vn -0.218573470152212 0.975820494837867 0
vn -0.218573470152212 0.975820494837867 2.0407777514027E-17
vn -0.218573470152216 0.975820494837866 2.04077775140269E-17
vn -0.584613414413227 0.811311996514355 1.69673365203064E-17
vn -0.584613414413214 0.811311996514364 1.69673365203066E-17
vn -0.584613414413214 0.811311996514364 1.11363300254823E-16
vn -0.584613414413226 0.811311996514355 1.11363300254825E-16
vn -0.816496580927711 0.577350269189647 1.33694004864358E-16
vn -0.81649658092772 0.577350269189634 1.33694004864358E-16
vn -0.81649658092772 0.577350269189634 3.04278897424813E-17
vn -0.816496580927711 0.577350269189647 3.0427889742482E-17
vn -0.94080075997999 0.338960071425931 1.78640943476623E-17
vn -0.94080075997999 0.338960071425932 1.78640943476623E-17
vn -0.94080075997999 0.338960071425932 2.06216701339344E-17
vn -0.94080075997999 0.338960071425931 2.06216701339344E-17
vn -0.993786978145489 0.111298886195938 6.77120732171095E-18
vn -0.993786978145488 0.111298886195956 6.77120732171203E-18
vn -0.993786978145488 0.111298886195955 1.40199091331422E-16
vn -0.99378697814549 0.111298886195938 1.40199091331422E-16
vn 0.21857347015222 0.975820494837865 0
vn 0.21857347015222 0.975820494837866 2.13934661978561E-17
vn 0.218573470152216 0.975820494837866 2.13934661978561E-17
vn 0.584613414413205 0.811311996514371 1.77868530791917E-17
vn 0.584613414413218 0.811311996514362 1.77868530791915E-17
vn 0.584613414413218 0.811311996514361 1.16988382005722E-16
vn 0.584613414413205 0.811311996514371 1.16988382005721E-16
vn 0.81649658092773 0.57735026918962 1.40007862735219E-16
vn 0.816496580927722 0.577350269189632 1.40007862735218E-16
vn 0.816496580927722 0.577350269189632 3.47973906778652E-17
vn 0.81649658092773 0.57735026918962 3.47973906778644E-17
vn 0.94080075997999 0.338960071425931 2.04294111547927E-17
vn 0.940800759979991 0.338960071425931 2.04294111547926E-17
vn 0.94080075997999 0.338960071425931 2.35778817611848E-17
vn 0.94080075997999 0.338960071425931 2.35778817611848E-17
vn 0.993786978145482 0.111298886196008 7.74189115503087E-18
vn 0.993786978145484 0.111298886195991 7.74189115502964E-18
vn 0.993786978145484 0.111298886195991 1.51476753680923E-16
vn 0.993786978145482 0.111298886196008 1.51476753680924E-16
vn 0 0.975820494837865 -0.21857347015222
vn -1.21672376887218E-17 0.975820494837866 -0.218573470152216
vn -1.21672376887218E-17 0.975820494837865 -0.21857347015222
vn -1.01160264142042E-17 0.811311996514362 -0.584613414413218
vn -1.01160264142042E-17 0.811311996514363 -0.584613414413216
vn -1.93300000834886E-17 0.811311996514363 -0.584613414413216
vn -1.93300000834886E-17 0.811311996514361 -0.584613414413218
vn -1.37557201170266E-17 0.577350269189625 -0.816496580927726
vn -1.37557201170268E-17 0.577350269189633 -0.816496580927721
vn -5.2549129362392E-17 0.577350269189633 -0.816496580927721
vn -5.2549129362392E-17 0.577350269189625 -0.816496580927727
vn -4.94518332060268E-17 0.338960071425931 -0.940800759979991
vn -4.9451833206027E-17 0.338960071425939 -0.940800759979988
vn -8.93437644793205E-17 0.338960071425939 -0.940800759979987
vn -8.93437644793205E-17 0.338960071425931 -0.940800759979991
vn -8.47117980784876E-17 0.111298886195999 -0.993786978145483
vn -8.47117980784876E-17 0.111298886196 -0.993786978145483
vn -8.52195472470455E-17 0.111298886196 -0.993786978145483
vn -8.52195472470455E-17 0.111298886195999 -0.993786978145483
vn -0.21857347015222 0.975820494837865 0
vn -0.21857347015222 0.975820494837866 -2.13934661978561E-17
vn -0.218573470152216 0.975820494837866 -2.13934661978561E-17
vn -0.584613414413205 0.811311996514371 -1.77868530791917E-17
vn -0.584613414413218 0.811311996514362 -1.77868530791915E-17
vn -0.584613414413218 0.811311996514361 -1.16988382005722E-16
vn -0.584613414413205 0.811311996514371 -1.16988382005721E-16
vn -0.81649658092773 0.57735026918962 -1.40007862735219E-16
vn -0.816496580927722 0.577350269189632 -1.40007862735218E-16
vn -0.816496580927722 0.577350269189632 -3.47973906778652E-17
vn -0.81649658092773 0.57735026918962 -3.47973906778644E-17
vn -0.94080075997999 0.338960071425931 -2.04294111547927E-17
vn -0.940800759979991 0.338960071425931 -2.04294111547926E-17
vn -0.94080075997999 0.338960071425931 -2.35778817611848E-17
vn -0.94080075997999 0.338960071425931 -2.35778817611848E-17
vn -0.993786978145482 0.111298886196008 -7.74189115503087E-18
vn -0.993786978145484 0.111298886195991 -7.74189115502964E-18
vn -0.993786978145484 0.111298886195991 -1.51476753680923E-16
vn -0.993786978145482 0.111298886196008 -1.51476753680924E-16
vn 0 0.975820494837865 0.21857347015222
vn 1.21672376887218E-17 0.975820494837866 0.218573470152216
vn 1.21672376887218E-17 0.975820494837865 0.21857347015222
vn 1.01160264142042E-17 0.811311996514362 0.584613414413218
vn 1.01160264142042E-17 0.811311996514363 0.584613414413216
vn 1.93300000834886E-17 0.811311996514363 0.584613414413216
vn 1.93300000834886E-17 0.811311996514361 0.584613414413218
vn 1.37557201170266E-17 0.577350269189625 0.816496580927726
vn 1.37557201170268E-17 0.577350269189633 0.816496580927721
vn 5.2549129362392E-17 0.577350269189633 0.816496580927721
vn 5.2549129362392E-17 0.577350269189625 0.816496580927727
vn 4.94518332060268E-17 0.338960071425931 0.940800759979991
vn 4.9451833206027E-17 0.338960071425939 0.940800759979988
vn 8.93437644793205E-17 0.338960071425939 0.940800759979987
vn 8.93437644793205E-17 0.338960071425931 0.940800759979991
vn 8.47117980784876E-17 0.111298886195999 0.993786978145483
vn 8.47117980784876E-17 0.111298886196 0.993786978145483
vn 8.52195472470455E-17 0.111298886196 0.993786978145483
vn 8.52195472470455E-17 0.111298886195999 0.993786978145483
g Button
f 1//1 2//2 3//3 4//4
f 4//5 3//6 5//7 6//8
f 6//9 5//10 7//11 8//12
f 8//13 7//14 9//15 10//16
f 10//17 9//18 11//19 12//20
f 12//21 11//21 11//21 12//21
f 2//22 13//23 14//24 3//25
f 3//26 14//27 15//28 5//29
f 5//30 15//31 16//32 7//33
f 7//34 16//35 17//36 9//37
f 9//38 17//39 18//40 11//41
f 11//21 18//21 18//21 11//21
f 13//42 19//43 20//44 14//45
f 14//46 20//47 21//48 15//49
f 15//50 21//51 22//52 16//53
f 16//54 22//55 23//56 17//57
f 17//58 23//59 24//60 18//61
f 18//21 24//21 24//21 18//21
f 19//62 1//63 4//64 20//65
f 20//66 4//67 6//68 21//69
f 21//70 6//71 8//72 22//73
f 22//74 8//75 10//76 23//77
f 23//78 10//79 12//80 24//81
f 24//21 12//21 12//21 24//21
f 1//22 19//82 25//83 26//84
f 26//85 25//86 27//87 28//88
f 28//89 27//90 29//91 30//92
f 30//93 29//94 31//95 32//96
f 32//97 31//98 33//99 34//100
f 34//21 33//21 33//21 34//21
f 19//101 13//2 35//102 25//103
f 25//104 35//105 36//106 27//107
f 27//108 36//109 37//110 29//111
f 29//112 37//113 38//114 31//115
f 31//116 38//117 39//118 33//119
f 33//21 39//21 39//21 33//21
f 13//62 2//120 40//121 35//122
f 35//123 40//124 41//125 36//126
f 36//127 41//128 42//129 37//130
f 37//131 42//132 43//133 38//134
f 38//135 43//136 44//137 39//138
f 39//21 44//21 44//21 39//21
f 2//139 1//43 26//140 40//141
f 40//142 26//143 28//144 41//145
f 41//146 28//147 30//148 42//149
f 42//150 30//151 32//152 43//153
f 43//154 32//155 34//156 44//157
f 44//21 34//21 34//21 44//21
#h 
